PathFileType	4	(X/Y/Z)	Kaydara	
DataRate	CameraRate	NumFrames	NumMarkers	Units	OrigDataRate	OrigDataStartFrame	OrigNumFrames	
120.00	120.00	4	72	mm	120.00	68	268	
Frame#	Time	Hips			RightUpLeg			RightLeg			RightFoot			RightFoot_End			LeftUpLeg			LeftLeg			LeftFoot			LeftFoot_End			Spine			Spine1			Spine2			Spine3			Neck			Head			Head_End			RightShoulder			RightArm			RightForeArm			RightHand			RightHandThumb1			RightHandThumb2			RightHandThumb3			RightHandThumb3_End			RightInHandIndex			RightHandIndex1			RightHandIndex2			RightHandIndex3			RightHandIndex3_End			RightInHandMiddle			RightHandMiddle1			RightHandMiddle2			RightHandMiddle3			RightHandMiddle3_End			RightInHandRing			RightHandRing1			RightHandRing2			RightHandRing3			RightHandRing3_End			RightInHandPinky			RightHandPinky1			RightHandPinky2			RightHandPinky3			RightHandPinky3_End			LeftShoulder			LeftArm			LeftForeArm			LeftHand			LeftHandThumb1			LeftHandThumb2			LeftHandThumb3			LeftHandThumb3_End			LeftInHandIndex			LeftHandIndex1			LeftHandIndex2			LeftHandIndex3			LeftHandIndex3_End			LeftInHandMiddle			LeftHandMiddle1			LeftHandMiddle2			LeftHandMiddle3			LeftHandMiddle3_End			LeftInHandRing			LeftHandRing1			LeftHandRing2			LeftHandRing3			LeftHandRing3_End			LeftInHandPinky			LeftHandPinky1			LeftHandPinky2			LeftHandPinky3			LeftHandPinky3_End			
		X1	Y1	Z1	X2	Y2	Z2	X3	Y3	Z3	X4	Y4	Z4	X5	Y5	Z5	X6	Y6	Z6	X7	Y7	Z7	X8	Y8	Z8	X9	Y9	Z9	X10	Y10	Z10	X11	Y11	Z11	X12	Y12	Z12	X13	Y13	Z13	X14	Y14	Z14	X15	Y15	Z15	X16	Y16	Z16	X17	Y17	Z17	X18	Y18	Z18	X19	Y19	Z19	X20	Y20	Z20	X21	Y21	Z21	X22	Y22	Z22	X23	Y23	Z23	X24	Y24	Z24	X25	Y25	Z25	X26	Y26	Z26	X27	Y27	Z27	X28	Y28	Z28	X29	Y29	Z29	X30	Y30	Z30	X31	Y31	Z31	X32	Y32	Z32	X33	Y33	Z33	X34	Y34	Z34	X35	Y35	Z35	X36	Y36	Z36	X37	Y37	Z37	X38	Y38	Z38	X39	Y39	Z39	X40	Y40	Z40	X41	Y41	Z41	X42	Y42	Z42	X43	Y43	Z43	X44	Y44	Z44	X45	Y45	Z45	X46	Y46	Z46	X47	Y47	Z47	X48	Y48	Z48	X49	Y49	Z49	X50	Y50	Z50	X51	Y51	Z51	X52	Y52	Z52	X53	Y53	Z53	X54	Y54	Z54	X55	Y55	Z55	X56	Y56	Z56	X57	Y57	Z57	X58	Y58	Z58	X59	Y59	Z59	X60	Y60	Z60	X61	Y61	Z61	X62	Y62	Z62	X63	Y63	Z63	X64	Y64	Z64	X65	Y65	Z65	X66	Y66	Z66	X67	Y67	Z67	X68	Y68	Z68	X69	Y69	Z69	X70	Y70	Z70	X71	Y71	Z71	X72	Y72	Z72	

68	0.558	4446.805	859.65103	-201.189	4531.814947572172	855.587050699695	-232.84017560721867	4395.641979595427	463.6688042019164	-284.86946373249543	4433.817968401066	46.15739558202433	-346.5691268880907	4357.139692476439	-33.08345707958942	-188.76381181270864	4371.292610453634	835.9900194603196	-155.5865119100397	4249.9238772496765	439.34307645368295	-98.74592363787744	4195.108753507832	61.78851420661304	69.29864882312567	4229.747177789117	16.908424323319434	250.40749420670554	4400.085203018899	980.9820234426749	-260.3101383286428	4346.374529891516	1045.898516005957	-308.08504606119874	4283.758668848902	1106.7674910256067	-358.2055518733853	4215.694606796096	1155.4600202933455	-406.62584907038655	4142.186234985	1207.882049792374	-454.85854563832726	4099.878895644019	1280.0321649427908	-410.7991812337624	4076.6543474122686	1365.2220389754411	-278.0533762490334	4185.066807601857	1197.2143027867917	-457.9487059062498	4260.260835905442	1198.5794864746983	-533.0718134159362	4329.896471098502	983.4918737291208	-550.5372492623459	4413.518557014111	885.910880848787	-632.8886022960584	4416.146533643147	890.5833312748047	-646.7830064721298	4407.338168299866	890.3808842888983	-663.0166587763354	4402.401890476516	888.1001051891889	-673.2478272187005	4399.311470645155	884.3681799124029	-680.858377228911	4422.332337809114	883.1579522955753	-643.8362948651217	4433.095902709673	871.808653009519	-658.1942075654893	4431.769208298511	864.8907413962888	-670.1712944433697	4424.293709248675	863.7515659970176	-678.4679357811775	4413.620142856052	864.9413281561508	-685.9087465103069	4424.796623162747	877.7796650257188	-640.5099593724786	4436.630526289215	863.800502872138	-652.7144535380576	4435.462072083579	855.5800669855338	-665.3008406813808	4426.57713419014	853.8834155636883	-675.0786617765651	4414.963443291888	855.0285584236622	-683.1075823182703	4426.362471275085	874.243322577189	-637.7691889518228	4438.618399300482	858.5687513265402	-646.2564994021365	4437.86561965575	850.7396513871695	-656.7142102000084	4429.436452712913	848.7504061652384	-665.8734569356325	4418.5834953805725	849.6600021997613	-673.2936594005323	4427.0715382227345	870.7026778606598	-634.3859475805748	4439.087083444519	854.0516851788173	-640.0077223896851	4438.844550082002	846.8148474458209	-647.5452682123745	4432.870553331917	844.8958316705979	-653.821368999825	4423.356891928592	845.4322171307691	-660.1615571454923	4147.545645902185	1186.7410940215138	-417.85389887366284	4094.8864259870943	1124.0582138497364	-345.2903337155964	4194.624416919037	992.634978873876	-506.5198530576202	4372.156030333691	922.8937103186644	-493.10199064233905	4363.776662161093	932.5952021984581	-499.0554930298616	4368.631649876818	932.2682296979635	-524.4718882328767	4372.789594809438	929.9152654766306	-544.1437462905371	4376.920537596754	926.1355946952477	-562.2302106427107	4364.5622322590225	926.3087438459531	-505.49221994864416	4361.169075296341	921.730955011949	-536.8451065072511	4365.381776925634	916.1846557548541	-564.9567492504873	4371.239719644827	913.5272175880369	-581.8489115403182	4378.273074886138	911.8610029146195	-595.436060985083	4367.105938868995	920.5755058549156	-510.06326427010754	4365.170370706248	913.010029478216	-543.1146114793763	4370.122121418422	906.2133277693215	-574.2993086394916	4377.359804132779	902.6499224835742	-594.9234743085522	4385.138359284651	900.6530861481675	-609.9090851895801	4368.927305711712	916.650956751183	-512.4478588612669	4368.591311596868	906.4908038301836	-544.0074781293873	4373.273714115842	899.817549352177	-571.657143053887	4380.449641701166	895.9824847953831	-591.7998352383179	4387.855667306884	893.9164094031103	-606.0080995908212	4371.615996948163	912.1881197443525	-514.6405999590218	4372.75508334243	900.1472431888378	-544.7986078062646	4377.078187978064	893.6789153408782	-567.5337715538598	4382.589812656961	890.337580921795	-582.5134382924189	4389.310032676202	888.194282007561	-595.2651124537941
69	0.567	4446.805	859.65103	-201.189	4531.494057383923	855.4646178419808	-232.94825219756584	4395.763212557668	463.5054016557425	-285.0934001468579	4433.842809929725	46.343088459538826	-347.43868293209914	4357.578460608955	-32.95320401951898	-189.7516701847229	4371.593738183228	836.1063387855148	-155.47621050228142	4250.145154476749	439.6381259792755	-97.67707170390466	4195.048637346415	61.92889547159048	69.88128325784216	4229.8702923409055	16.83187659116016	250.87820632219004	4400.1909242655665	981.016377068435	-260.31290151580606	4346.546566193167	1046.0153353743844	-308.03942496318047	4284.003912696473	1106.9853082491957	-358.10510258661554	4216.0308976281285	1155.8260382323838	-406.4739840483355	4142.619736146295	1208.403321365256	-454.64939439537966	4100.2846210249145	1280.589630879535	-410.6783279903698	4077.0034234303453	1365.8786258594612	-278.0266355250258	4185.406030497311	1197.6819653866276	-457.7089450987186	4260.388265944558	1199.0996391052931	-532.633875890019	4330.609418825223	984.4659497269291	-550.0787189856372	4414.310096994694	887.3571972661963	-632.9881722425946	4417.109054797794	892.2304789533072	-646.8516198922562	4408.508788958463	892.1809892195938	-663.1452955835131	4403.702846911431	889.9853653199933	-673.4383641679054	4400.708606011226	886.3061535927944	-681.1177125846737	4423.252344207684	884.7478435248256	-643.9714484302392	4434.18378851023	873.5348149737621	-658.469871340195	4433.005543170187	866.7069099525781	-670.5590157565598	4425.638545194442	865.6278726168321	-678.9058820832437	4415.06571961523	866.8702305935844	-686.3751515707609	4425.672621396897	879.3064765391975	-640.6955693024596	4437.646456393739	865.4261098256067	-653.0644009614134	4436.63367759872	857.2951182557592	-665.7792843338171	4427.876613130916	855.6668116609133	-675.6206853869879	4416.371678605783	856.8674580318884	-683.6821950054294	4427.202710313188	875.7220269717361	-637.9868751934168	4439.551883296634	860.0940501584183	-646.649351357664	4438.928123459321	852.333789907457	-657.2251583326138	4430.618759686646	850.4056256498958	-666.4489708901992	4419.866383003491	851.3651142337229	-673.9013501841139	4427.868716363446	872.1224890328889	-634.6364194459269	4439.9420076802935	855.4777562825172	-640.4391611218246	4439.791982725113	848.281611444956	-648.0800231517399	4433.9001436341005	846.4001675493075	-654.4074510737543	4424.4725719737935	846.9767319631266	-660.7785781883506	4148.010975961666	1187.206282902196	-417.7178547785329	4095.533324715903	1124.6328852426873	-345.33646751877586	4194.756345334359	993.1490922172642	-506.1627828916249	4372.526723946217	924.3263286478175	-493.0908563466477	4364.354086734576	934.1839191630712	-499.1562583157921	4369.311899349336	933.8082578760777	-524.5024785878186	4373.50970112119	931.4107906358307	-544.1079257590224	4377.646709998149	927.584954587698	-562.1240205908477	4365.047833477824	927.8938379316471	-505.55478342792765	4361.699425064162	923.4229771984155	-536.8928297121835	4365.927110292437	917.8440475903706	-564.9171776692974	4371.807891671717	915.1079017522325	-581.728261736962	4378.869271645305	913.3371340785442	-595.2302191958037	4367.502859821602	922.1229706375959	-510.07497840235675	4365.562974499699	914.6414655337694	-543.0843685720959	4370.519209328999	907.8037119874717	-574.1670530077128	4377.778751196296	904.1427356202599	-594.6901568943817	4385.585202210783	902.0302282488868	-609.5809766067939	4369.260397055786	918.170146411782	-512.4246903860054	4368.865024885505	908.0637436492051	-543.9183696676486	4373.539213731606	901.3489985464992	-571.472271161526	4380.729788926532	897.4167867066906	-591.5138450574652	4388.158993105639	895.2405145160936	-605.6312587028698	4371.8744977692695	913.6634391869973	-514.5724271191893	4372.913036156847	901.6483372736909	-544.6444332873045	4377.210912021687	895.1376347285319	-567.2925129911282	4382.724197895331	891.7210138055498	-582.1933920420132	4389.459758124947	889.4775514945399	-594.861691537141
70	0.575	4446.805	859.65103	-201.189	4531.1735898617235	855.3349185349693	-233.0349037691982	4395.847352658095	463.34494933001616	-285.28766038538356	4433.837012447207	46.52644634904692	-348.22900185499606	4357.985273991593	-32.81612740476969	-190.65667260677472	4371.890435768214	836.2292946356296	-155.38619222541485	4250.393873916736	439.92342110771625	-96.68670596065307	4194.93995386004	62.14397821369243	70.52911747671153	4229.916327936533	16.85971917773375	251.4269046406547	4400.314149868846	981.0539346723174	-260.32196045071726	4346.747815756942	1046.1438413228161	-307.9988065717173	4284.294590153257	1107.2304761949858	-358.00799700630677	4216.428342780778	1156.2362488164324	-406.32492937075705	4143.130228938402	1208.9846229794525	-454.4428145816998	4100.804030856018	1281.2205566961372	-410.5521091835737	4077.455066779549	1366.616867909602	-278.00177365652803	4185.825397909683	1198.2226401287653	-457.4478340439316	4260.637240369402	1199.8180425840665	-532.082996095736	4331.587178795405	985.7724725361182	-549.4909168824788	4415.670670169385	889.695410712774	-633.0209090496844	4418.654807929283	894.8961248347088	-646.7827334311761	4410.306455646886	895.1114790621081	-663.1285966758546	4405.668734855312	893.075687309578	-673.4900380201811	4402.808564304596	889.5086713890909	-681.253785893547	4424.783189287295	887.3588874862318	-644.0019348747919	4435.974307834053	876.4561396193199	-658.6422249350704	4435.00907572881	869.8251403471819	-670.8627848028979	4427.777964246149	868.8540461736944	-679.2721953657662	4417.319943593591	870.175985638163	-686.7803119852399	4427.176350449196	881.838894312077	-640.8097860566367	4439.388788149699	868.2186420491539	-653.3622713902719	4438.604068958112	860.2911095136567	-666.2311834262068	4430.008844663002	858.7875591565916	-676.153142864863	4418.6285057776895	860.072621933844	-684.2596370308871	4428.680331658994	878.1910711863183	-638.1565329804253	4441.219730429133	862.7414715136019	-647.0314502778616	4440.789899364546	855.1464788365018	-657.7520846899785	4432.634068057974	853.3322434671138	-667.0592178269022	4421.997622565437	854.3680681583185	-674.556555467325	4429.31127224181	874.5087619433743	-634.8666090930296	4441.536418605963	857.9770236609502	-640.9012474693293	4441.533292436915	850.89361309722	-648.6736543932698	4435.7493808733	849.0857855041145	-655.0693898555076	4426.422169003774	849.7245130189863	-661.4846779484889	4148.537005193994	1187.7058609378605	-417.60702551833435	4096.200721045806	1125.1974977730508	-345.5270853090692	4195.094378857521	993.9902508106466	-505.9993553850601	4373.1036052153595	926.4171568752749	-493.1819189170806	4365.204397442772	936.4662759207919	-499.34079726160803	4370.275308479022	936.0530838999053	-524.6203534619608	4374.510394167471	933.6224855331848	-544.1658954950524	4378.643002426477	929.7630453676422	-562.1205183386287	4365.781078186716	930.1931615111544	-505.71286069539576	4362.489496163838	925.9090178365602	-537.0457944057384	4366.721827462632	920.3293247368504	-564.9956345559074	4372.615719334711	917.5121717240039	-581.732830266422	4379.6948455098145	915.6200331058675	-595.1550343509901	4368.119655291534	924.3905584906627	-510.19319856800973	4366.17221840625	917.0740430456316	-543.1760638742876	4371.117930360531	910.2305000546884	-574.1721148974893	4378.385806621521	906.4694130747334	-594.6035159437721	4386.208037415039	904.2229467833339	-609.4058278692995	4369.793565178505	920.4118665299228	-512.5155132070067	4369.319108090278	910.4347305580561	-543.9634849425724	4373.9681977974205	903.709599017147	-571.4364616044622	4381.15835396047	899.6779863189639	-591.3867060748513	4388.598386935291	897.3744150494853	-605.4195379004531	4372.308890116216	915.8595492686446	-514.6268477097992	4373.21433275665	903.9393767869414	-544.6366061837465	4377.467606700441	897.4114514230246	-567.2116333096626	4382.968733485899	893.9180187001406	-582.0419042460712	4389.707064995895	891.5593113953132	-594.6329805307861
71	0.583	4446.805	859.65103	-201.189	4530.855196574874	855.2022702200405	-233.09000933757173	4395.896034614083	463.18778224446993	-285.42221896113546	4433.831773542796	46.70835301647341	-348.89210870266675	4358.393594667386	-32.67660451335834	-191.43257231687517	4372.180821408426	836.3541790034327	-155.3274202757611	4250.6717152579695	440.1877227149529	-95.8218666307164	4194.79349812601	62.44083933765209	71.24033136708151	4229.894613744225	17.00922267946376	252.0543404240657	4400.455798327439	981.0961451067658	-260.33425696540036	4346.979861853309	1046.2862343835088	-307.9592909897758	4284.632515914274	1107.5054009931246	-357.9096367788029	4216.888672078062	1156.692962941756	-406.17327507977245	4143.719544121746	1209.6285260395407	-454.23247879351584	4101.442614247324	1281.9265300250497	-410.4108195287707	4078.0179779018476	1367.4355438787916	-277.96675700451607	4186.325901381039	1198.838124562075	-457.1578560262377	4261.008241924852	1200.7403023753236	-531.4018795708226	4332.832561743245	987.4244288775109	-548.7438892063021	4417.609785271581	892.9955492717495	-632.9320321181926	4420.783044104837	898.6550845942594	-646.5137770259556	4412.723835844713	899.2526059816396	-662.8963123973145	4408.289059384766	897.4558777393065	-673.3274184541018	4405.599431028411	894.0649941401533	-681.1869911182512	4426.928228749366	891.0693909015629	-643.8649760245228	4438.46691875525	880.6651499514089	-658.6372931891908	4437.776835522575	874.3462623119749	-671.0013336015977	4430.706785791125	873.5334807761478	-679.4820802923425	4420.3753323605615	874.9623562455766	-687.0371917176507	4429.3151838546855	885.4567449678176	-640.7907001816479	4441.863266611476	872.2726149162523	-653.5357038892511	4441.376884381019	864.6717728346965	-666.5763707223664	4432.9750611588015	863.3525571342411	-676.5916840360829	4421.73276527724	864.751388338887	-684.7531419000888	4430.805652576879	881.7310168673808	-638.217146124032	4443.633370376603	866.6054492100205	-647.333170660633	4443.461098371827	859.2803177216841	-658.218731193479	4435.490504349296	857.6359842908577	-667.6239959755601	4424.983231916011	858.7750348231925	-675.1768446703419	4431.412984429183	877.9423047607539	-635.0169031220938	4443.887266624073	861.6432558977857	-641.3273120074584	4444.085270802955	854.7513057192026	-649.2544865118814	4438.433998444312	853.0554889142637	-655.7327809567757	4429.219789310928	853.778799546169	-662.2035626089445	4149.126268844966	1188.2428708595603	-417.51704527954803	4096.890019415332	1125.7545992396635	-345.8707433020193	4195.673106506578	995.2040243966584	-506.0357048669332	4373.884965694845	929.2230089756836	-493.3485153182922	4366.322607143579	939.499908731911	-499.57322606435207	4371.514280182399	939.0677699411342	-524.788728131123	4375.78305899081	936.621084616286	-544.2814216607705	4379.900635443866	932.7457587432235	-562.1849372747661	4366.7597038306685	933.2657398090133	-505.9333474875309	4363.53845754111	929.2554273010148	-537.2680133499617	4367.765245523853	923.7145098738483	-565.1573214917933	4373.661383742392	920.8192568961132	-581.8295754347364	4380.746209037394	918.7935336377582	-595.1796053281251	4368.956147547828	927.4385243932652	-510.3882773697854	4367.00044896204	920.3758261699817	-543.3591069241819	4371.921062049171	913.5702698525373	-574.2856704830385	4379.182506731415	909.7128824458997	-594.6370724318699	4387.006528948662	907.3192403414969	-609.3596115919132	4370.528082922912	923.4370325901659	-512.6931704662363	4369.9583967495255	913.6721893162871	-544.116909833303	4374.566148746442	906.9753288947078	-571.52582173593	4381.739766035225	902.8482570690417	-591.3970431064557	4389.176585865752	900.4050858534393	-605.3539883458254	4372.921965922875	918.8380831858284	-514.7798583102915	4373.666017165617	907.0892553174901	-544.754121089943	4377.856241491639	900.5754820736146	-567.2724919025816	4383.330817828522	897.0083156375405	-582.0425315004353	4390.057966132706	894.5235835673217	-594.564893109636
